<svg xmlns="http://www.w3.org/2000/svg" width="48" height="48" id="ecology">
  <path fill-rule="evenodd" d="M24 0C10.751 0 0 10.751 0 24s10.751 24 24 24 24-10.751 24-24S37.249 0 24 0zm0 1c12.708 0 23 10.292 23 23 0 12.709-10.292 23-23 23S1 36.709 1 24C1 11.292 11.292 1 24 1zm1.777 6.998V8a.5.5 0 0 0-.05 0 .5.5 0 0 0-.243.082s-4.722 3.083-4.722 7.916c0 2.036 1.54 3.707 3.511 3.951-.137 3.163.038 5.491.27 7.444a7.94 7.94 0 0 1-2.27-.096 4.004 4.004 0 0 0-1.779-4.762c-1.652-.953-3.202-.787-4.473-.691-1.27.096-2.202.152-3.17-.815a.5.5 0 0 0-.359-.146.5.5 0 0 0-.492.531s.308 5.632 4.494 8.049c1.83 1.056 4.147.48 5.307-1.248a8.98 8.98 0 0 0 2.562.193.5.5 0 0 0 .309.131h.008c.193 1.474.379 2.818.414 4.215a3.08 3.08 0 0 0-2.942-.61c-1.287.412-2.12 1.606-2.142 2.907a2.5 2.5 0 1 0-.512 4.947.5.5 0 0 0 .084-.01.5.5 0 0 0 .08.01h10.143a.5.5 0 0 0 .1-.01.5.5 0 0 0 .093.01c1.05 0 1.99-.658 2.35-1.644a2.495 2.495 0 0 0-2.13-3.344 2.4 2.4 0 0 0-.761.049 2.498 2.498 0 0 0-3.09-1.979c-.094.024-.185.06-.275.096 0-1.599-.189-3.06-.397-4.637a9.007 9.007 0 0 0 1.504-.201c1.162 1.724 3.476 2.295 5.303 1.24 4.186-2.417 4.494-8.047 4.494-8.047a.5.5 0 0 0-.531-.531.5.5 0 0 0-.32.145c-.968.967-1.898.912-3.168.816-1.271-.096-2.823-.264-4.475.69a4.007 4.007 0 0 0-1.78 4.761 8 8 0 0 1-1.146.133 43.222 43.222 0 0 1-.303-7.6c1.96-.255 3.489-1.919 3.489-3.947 0-1.907-.92-3.166-1.639-4.219-.718-1.052-1.233-1.829-.879-3.15a.5.5 0 0 0-.467-.631zm-.463 1.592a5.628 5.628 0 0 0 .983 2.756c.732 1.072 1.465 2.061 1.465 3.654a2.984 2.984 0 0 1-2.479 2.945 20.255 20.255 0 0 1 .121-3.2.5.5 0 0 0 .004-.052.5.5 0 1 0-.998-.068 21.234 21.234 0 0 0-.127 3.328 2.984 2.984 0 0 1-2.521-2.951c0-3.46 2.552-5.63 3.552-6.412zm-12.1 12.724c.953.457 1.942.6 2.882.53 1.295-.098 2.519-.238 3.898.558a2.983 2.983 0 0 1 1.303 3.643 7.991 7.991 0 0 1-2.576-1.385.5.5 0 0 0-.323-.115.5.5 0 0 0-.306.892 8.981 8.981 0 0 0 2.693 1.489 2.986 2.986 0 0 1-3.79.674c-2.998-1.731-3.604-5.03-3.78-6.286zm22.567.116c-.176 1.255-.78 4.554-3.779 6.285a2.986 2.986 0 0 1-3.79-.67 8.996 8.996 0 0 0 2.692-1.492.5.5 0 0 0-.306-.893.5.5 0 0 0-.323.117 7.989 7.989 0 0 1-2.572 1.391 2.982 2.982 0 0 1 1.299-3.648c1.38-.797 2.603-.659 3.898-.561a5.621 5.621 0 0 0 2.881-.53zM23.242 33.004a2.08 2.08 0 0 1 1.692 1.121.5.5 0 0 0 .877.459 1.496 1.496 0 0 1 1.775-.463c.63.269.997.922.896 1.6a.5.5 0 0 0 .84.45 1.491 1.491 0 0 1 2.086 1.843 1.497 1.497 0 0 1-1.41.986.5.5 0 0 0-.1.01.5.5 0 0 0-.093-.01H19.662a.5.5 0 0 0-.082.01.5.5 0 0 0-.082-.01 1.499 1.499 0 1 1 .74-2.803.5.5 0 0 0 .584-.066.5.5 0 0 0 .233-.543 2.098 2.098 0 0 1 2.187-2.584z" color="#000" font-family="sans-serif" font-weight="400" overflow="visible" style="line-height:normal;text-indent:0;text-align:start;text-decoration-line:none;text-decoration-style:solid;text-decoration-color:#000;text-transform:none;block-progression:tb;isolation:auto;mix-blend-mode:normal"></path>
</svg>
